# xmcd CD database file
# Copyright (C) 1993-1998 Ti Kan
#
# Track frame offsets:
#  150
#  24805
#  43807
#  62295
#  83470
#  99900
#  108300
#  124677
#  148135
#  162182
#  185295
#
# Disc length: 2887 seconds
#
# Revision: 1
# Processed by: cddbd v1.4b41PL1 Copyright (c) Steve Scherf et al.
# Submitted via: CDWizzard Release:4.35
#
DISCID=7c0b450b
DTITLE=Phil and Brenda Nicholas - More Than Music
DYEAR=1900
DGENRE=
TTITLE0=Excuse Me
TTITLE1=Holy Spirit
TTITLE2=We Walk By Faith
TTITLE3=I Do (Promise To Love You)
TTITLE4=Just Call Him
TTITLE5=By and By (Preview)
TTITLE6=We'll Understand It Better (By and By)
TTITLE7=He Touched Me
TTITLE8=Look Before You Leap
TTITLE9=Diamonds
TTITLE10=It Won't Be Long
EXTD=
EXTT0=
EXTT1=
EXTT2=
EXTT3=
EXTT4=
EXTT5=
EXTT6=
EXTT7=
EXTT8=
EXTT9=
EXTT10=
PLAYORDER=
